<svg width="32" height="32" viewBox="0 0 32 32" fill="none" xmlns="http://www.w3.org/2000/svg">
<path d="M13.5431 20.947C14.3092 21.162 15.1165 21.2769 15.9502 21.2769C16.784 21.2769 17.5912 21.162 18.3574 20.947L19.0379 22.7847C19.0615 22.8486 19.0736 22.9163 19.0736 22.9846C19.0736 23.299 18.822 23.5538 18.5116 23.5538L17.0744 23.5176C17.1489 25.1013 17.7255 26.0114 19.2225 26.5168C19.8115 26.7156 20.1298 27.3603 19.9335 27.9568C19.7372 28.5533 19.1006 28.8756 18.5116 28.6768C16.0964 27.8615 14.9046 26.1178 14.8288 23.5538H13.3889C13.3215 23.5538 13.2546 23.5415 13.1915 23.5176C12.9009 23.4072 12.7536 23.0791 12.8626 22.7847L13.5431 20.947Z" fill="#374AD3"/>
<path fill-rule="evenodd" clip-rule="evenodd" d="M16.0001 21.3334C10.8454 21.3334 6.66675 17.1547 6.66675 12.0001C6.66675 6.84542 10.8454 2.66675 16.0001 2.66675C21.1547 2.66675 25.3334 6.84542 25.3334 12.0001C25.3334 17.1547 21.1547 21.3334 16.0001 21.3334ZM11.7547 11.7344C11.721 11.2524 11.3029 10.8889 10.8208 10.9226C10.3387 10.9563 9.97524 11.3744 10.009 11.8565C10.1638 14.071 11.1956 15.8181 13.0601 17.0229C13.466 17.2852 14.0076 17.1688 14.2699 16.7629C14.5322 16.357 14.4158 15.8154 14.0099 15.5531C12.6081 14.6473 11.8711 13.3994 11.7547 11.7344Z" fill="#374AD3"/>
</svg>
