<svg width="625" height="566" viewBox="0 0 625 566" fill="none" xmlns="http://www.w3.org/2000/svg">
<path d="M300.345 403.889C300.345 429.27 290.265 453.611 272.323 471.558C254.381 489.505 230.046 499.587 204.672 499.587C151.834 499.587 109 456.742 109 403.889C108.976 387.882 112.984 372.126 120.654 358.076C120.665 358.05 120.679 358.024 120.695 358H288.63C288.646 358.024 288.659 358.05 288.671 358.076C296.348 372.124 300.363 387.88 300.345 403.889Z" fill="#E5A3A3"/>
<path d="M119.331 360.591L139.04 473.514" stroke="white" stroke-width="1.15978" stroke-miterlimit="10"/>
<path d="M152.785 484.306L174.276 358.86" stroke="white" stroke-width="1.15978" stroke-miterlimit="10"/>
<path d="M156.546 358.652L255.445 485.013" stroke="white" stroke-width="1.15978" stroke-miterlimit="10"/>
<path d="M351.748 292.67L341.633 300.118L352.735 304.987L351.753 292.68L351.748 292.67ZM353.927 287.926L355.605 309.03L336.574 300.679L353.922 287.926H353.927Z" fill="#090928"/>
<path d="M364.881 495.909C362.777 495.909 360.72 496.533 358.97 497.702C357.221 498.871 355.857 500.532 355.052 502.476C354.247 504.42 354.036 506.559 354.447 508.623C354.857 510.687 355.871 512.582 357.358 514.07C358.846 515.558 360.742 516.571 362.805 516.982C364.869 517.392 367.008 517.181 368.952 516.376C370.896 515.571 372.557 514.207 373.726 512.458C374.895 510.708 375.519 508.652 375.519 506.548C375.517 503.727 374.395 501.023 372.4 499.028C370.406 497.033 367.701 495.912 364.881 495.909ZM364.881 493.366C367.488 493.366 370.037 494.139 372.205 495.587C374.372 497.035 376.062 499.093 377.06 501.502C378.058 503.91 378.32 506.56 377.811 509.117C377.303 511.675 376.048 514.023 374.205 515.867C372.361 517.711 370.013 518.966 367.456 519.475C364.899 519.984 362.248 519.723 359.84 518.726C357.431 517.728 355.372 516.039 353.924 513.871C352.475 511.703 351.702 509.155 351.702 506.548C351.702 503.052 353.091 499.7 355.562 497.228C358.033 494.756 361.385 493.367 364.881 493.366Z" fill="#090928"/>
<path d="M326.176 413.706C322.765 413.706 320 410.941 320 407.53C320 404.119 322.765 401.354 326.176 401.354C329.587 401.354 332.352 404.119 332.352 407.53C332.352 410.941 329.587 413.706 326.176 413.706Z" fill="#090928"/>
<path d="M502.563 441.418C497.342 441.418 493.109 437.185 493.109 431.964C493.109 426.743 497.342 422.51 502.563 422.51C507.784 422.51 512.016 426.743 512.016 431.964C512.016 437.185 507.784 441.418 502.563 441.418Z" fill="#090928"/>
<path d="M408.693 256L381.484 281.055" stroke="#090928" stroke-width="1.98462" stroke-miterlimit="10"/>
<path d="M365.666 433.732L338.46 458.79" stroke="#090928" stroke-width="1.98462" stroke-miterlimit="10"/>
<path d="M507.201 353.116C509.171 359.173 518.767 356.048 520.738 362.105C522.708 368.161 513.11 371.284 515.085 377.338C517.061 383.392 526.652 380.272 528.625 386.326C530.598 392.38 520.997 395.507 522.973 401.564" stroke="#090928" stroke-width="1.98462" stroke-miterlimit="10"/>
<path d="M496.392 497.435L522.673 526.022" stroke="#090928" stroke-width="1.98462" stroke-miterlimit="10"/>
<path d="M150.748 44.6701L140.633 52.1175L151.735 56.9867L150.753 44.6803L150.748 44.6701ZM152.927 39.9255L154.605 61.0295L135.574 52.6795L152.922 39.9255H152.927Z" fill="#090928"/>
<path d="M99.8808 175.909C97.7768 175.909 95.7199 176.533 93.9704 177.702C92.221 178.871 90.8574 180.532 90.0522 182.476C89.247 184.42 89.0363 186.559 89.4468 188.623C89.8573 190.687 90.8705 192.582 92.3583 194.07C93.8462 195.558 95.7417 196.571 97.8054 196.982C99.869 197.392 102.008 197.181 103.952 196.376C105.896 195.571 107.557 194.207 108.726 192.458C109.895 190.708 110.519 188.652 110.519 186.548C110.517 183.727 109.395 181.023 107.4 179.028C105.406 177.033 102.701 175.912 99.8808 175.909ZM99.8808 173.366C102.488 173.366 105.037 174.139 107.205 175.587C109.372 177.035 111.062 179.093 112.06 181.502C113.058 183.91 113.32 186.56 112.811 189.117C112.303 191.675 111.048 194.023 109.205 195.867C107.361 197.711 105.013 198.966 102.456 199.475C99.8989 199.984 97.2485 199.723 94.8398 198.726C92.4311 197.728 90.3724 196.039 88.9239 193.871C87.4754 191.703 86.7023 189.155 86.7023 186.548C86.7023 183.052 88.0907 179.7 90.5621 177.228C93.0334 174.756 96.3854 173.367 99.8808 173.366Z" fill="#090928"/>
<path d="M61.176 93.7061C57.765 93.7061 54.9998 90.941 54.9998 87.53C54.9998 84.1191 57.765 81.354 61.176 81.354C64.5869 81.354 67.3521 84.1191 67.3521 87.53C67.3521 90.941 64.5869 93.7061 61.176 93.7061Z" fill="#090928"/>
<path d="M237.563 121.418C232.342 121.418 228.109 117.185 228.109 111.964C228.109 106.743 232.342 102.51 237.563 102.51C242.784 102.51 247.016 106.743 247.016 111.964C247.016 117.185 242.784 121.418 237.563 121.418Z" fill="#090928"/>
<path d="M207.693 8L180.484 33.0553" stroke="#090928" stroke-width="1.98462" stroke-miterlimit="10"/>
<path d="M100.666 113.732L73.4597 138.79" stroke="#090928" stroke-width="1.98462" stroke-miterlimit="10"/>
<path d="M242.201 33.1165C244.171 39.173 253.767 36.0481 255.738 42.1047C257.708 48.1613 248.11 51.2837 250.085 57.3377C252.061 63.3918 261.652 60.2719 263.625 66.326C265.598 72.38 255.997 75.5075 257.973 81.5641" stroke="#090928" stroke-width="1.98462" stroke-miterlimit="10"/>
<path d="M231.392 177.435L257.673 206.022" stroke="#090928" stroke-width="1.98462" stroke-miterlimit="10"/>
<path d="M390.782 30.2864C416.156 30.2864 440.49 40.3688 458.432 58.3156C476.374 76.2624 486.454 100.604 486.454 125.984V365.672H295.109V125.984C295.109 100.604 305.189 76.2624 323.131 58.3156C341.073 40.3688 365.408 30.2864 390.782 30.2864Z" fill="#F4BF3D"/>
<path d="M428.318 33.1929C439.102 64.7528 437.264 99.5756 430.557 131.792C424.277 161.973 414.496 191.965 400.741 219.58C397.321 226.448 393.649 233.181 389.723 239.778C385.983 246.075 381.469 252.036 378.11 258.546C374.039 266.431 371.912 276.678 377.001 284.634C382.4 293.079 393.199 294.723 402.446 293.567C409.865 292.641 417.092 290.111 424.135 287.698C431.178 285.285 438.038 282.608 444.791 279.554C467.691 269.271 488.108 254.968 506.23 237.671C508.24 235.757 510.194 233.802 512.123 231.802C512.258 231.667 512.334 231.483 512.334 231.292C512.334 231.102 512.258 230.918 512.123 230.783C511.988 230.648 511.805 230.573 511.614 230.573C511.423 230.573 511.24 230.648 511.105 230.783C493.579 246.803 475.157 261.432 453.966 272.371C440.689 279.158 426.798 284.672 412.481 288.838C402.517 291.786 388.721 294.148 380.711 285.525C373.927 278.22 376.228 267.088 380.467 259.131C383.876 252.733 388.273 246.808 391.957 240.557C395.71 234.194 399.233 227.704 402.527 221.086C415.616 194.775 424.959 166.442 431.382 137.794C438.18 107.44 441.275 74.6738 432.812 44.3407C431.743 40.5026 430.562 36.7052 429.249 32.9333C429.051 32.3734 428.155 32.6126 428.354 33.1827L428.318 33.1929Z" fill="white"/>
<path d="M364.671 28.1179C378.375 35.0051 388.726 48.7896 394.024 62.9763C398.176 74.0783 398.721 85.6129 398.064 97.3155C396.955 117.259 391.199 136.317 383.057 154.485C376.202 169.756 367.744 184.207 359.368 198.699C352.79 210.071 346.193 221.439 339.577 232.804C328.59 251.638 313.114 272.178 318.315 295.206C319.681 301.499 322.689 307.318 327.033 312.071C332.213 317.588 338.936 319.62 345.898 321.971C360.467 326.899 372.36 339.706 370.324 355.974C369.859 359.795 368.569 363.468 366.543 366.741C366.034 367.529 367.235 368.161 367.76 367.453C376.477 355.705 373.078 339.426 363.18 329.551C358.136 324.522 351.984 321.457 345.231 319.37C341.16 318.103 336.992 316.952 333.348 314.651C330.189 312.626 327.482 309.97 325.399 306.848C315.924 292.809 318.722 275.003 325.781 260.597C329.587 252.824 334.396 245.454 338.763 237.986C345.104 227.127 351.421 216.252 357.714 205.362C366.319 190.478 375.184 175.711 382.523 160.14C391.388 141.306 398.125 121.454 399.703 100.584C400.497 90.0771 400.583 79.474 397.912 69.1967C394.349 55.4528 386.207 41.7955 374.981 32.9486C372.004 30.6085 368.758 28.633 365.312 27.0642C364.599 26.7333 363.963 27.7717 364.686 28.1332L364.671 28.1179Z" fill="white"/>
<path d="M338.025 40.1921C359.805 63.465 357.775 100.288 353.521 129.517C349.134 159.646 338.523 188.279 320.442 212.896C315.449 219.626 310.082 226.07 304.366 232.199C298.804 238.205 292.758 243.718 287.11 249.628C286.296 250.488 287.491 251.593 288.377 250.895C300.031 241.733 310.326 230.025 319.364 218.317C328.751 206.282 336.528 193.074 342.498 179.025C348.696 164.263 352.828 148.677 355.297 132.866C357.795 116.862 359.118 100.248 357.495 84.0909C355.846 67.6543 350.213 51.6554 338.666 39.571C338.274 39.1587 337.648 39.7798 338.04 40.1921H338.025Z" fill="white"/>
<path d="M308.86 69.614C315.984 88.0715 315.211 108.433 310.269 127.333C307.604 137.167 304.053 146.738 299.659 155.93C295.425 164.986 290.448 173.655 286.071 182.634C285.992 182.802 285.978 182.994 286.033 183.171C286.088 183.349 286.207 183.499 286.367 183.593C286.528 183.687 286.717 183.718 286.899 183.679C287.081 183.64 287.241 183.534 287.349 183.382C295.993 169.892 303.081 155.466 308.478 140.379C313.766 125.618 316.804 109.914 315.806 94.1798C315.287 85.6272 313.423 77.2099 310.285 69.2373C309.939 68.3669 308.514 68.7283 308.86 69.6292V69.614Z" fill="#E4E5F2"/>
<path d="M291.791 341.447C297.196 341.464 302.59 341.943 307.913 342.877C312.448 343.641 317.297 344.445 321.516 346.349C325.323 348.064 326.849 350.635 327.552 354.559C328.096 357.951 328.458 361.37 328.635 364.801C328.635 365.004 328.716 365.198 328.859 365.341C329.002 365.484 329.196 365.565 329.399 365.565C329.601 365.565 329.795 365.484 329.939 365.341C330.082 365.198 330.162 365.004 330.162 364.801C330.671 357.787 331.134 348.879 324.132 344.949C319.786 342.495 314.346 341.61 309.491 340.816C303.635 339.934 297.704 339.656 291.791 339.986C291.606 340.001 291.432 340.086 291.306 340.223C291.18 340.36 291.11 340.54 291.11 340.726C291.11 340.913 291.18 341.093 291.306 341.23C291.432 341.367 291.606 341.452 291.791 341.467V341.447Z" fill="#E4E5F2"/>
<g filter="url(#filter0_dd)">
<path d="M284.5 44.3509C291.307 40.4209 299.693 40.4209 306.5 44.3509L484.985 147.399C491.792 151.329 495.985 158.592 495.985 166.452V372.548C495.985 380.408 491.792 387.671 484.985 391.601L306.5 494.649C299.693 498.579 291.307 498.579 284.5 494.649L106.015 391.601C99.2083 387.671 95.0151 380.408 95.0151 372.548V166.452C95.0151 158.592 99.2083 151.329 106.015 147.399L284.5 44.3509Z" fill="white"/>
</g>
<path d="M284 96.3509C290.807 92.4209 299.193 92.4209 306 96.3509L443.349 175.649C450.156 179.579 454.349 186.842 454.349 194.702V353.298C454.349 361.158 450.156 368.421 443.349 372.351L306 451.649C299.193 455.579 290.807 455.579 284 451.649L146.651 372.351C139.844 368.421 135.651 361.158 135.651 353.298V194.702C135.651 186.842 139.844 179.579 146.651 175.649L284 96.3509Z" stroke="#EAEAEA" stroke-width="2"/>
<path d="M286 139.351C292.807 135.421 301.193 135.421 308 139.351L407.244 196.649C414.05 200.579 418.244 207.842 418.244 215.702V330.298C418.244 338.158 414.05 345.421 407.244 349.351L308 406.649C301.193 410.579 292.807 410.579 286 406.649L186.756 349.351C179.95 345.421 175.756 338.158 175.756 330.298V215.702C175.756 207.842 179.95 200.579 186.756 196.649L286 139.351Z" stroke="#EAEAEA" stroke-width="2"/>
<path d="M284 190.351C290.807 186.421 299.193 186.421 306 190.351L363.674 223.649C370.481 227.579 374.674 234.842 374.674 242.702V309.298C374.674 317.158 370.481 324.421 363.674 328.351L306 361.649C299.193 365.579 290.807 365.579 284 361.649L226.326 328.351C219.519 324.421 215.326 317.158 215.326 309.298V242.702C215.326 234.842 219.519 227.579 226.326 223.649L284 190.351Z" stroke="#EAEAEA" stroke-width="2"/>
<path d="M428 265.272C428 324.632 371.959 373 302.5 373C233.041 373 177 324.632 177 265.272C177 235.544 191.864 205.389 214.881 189.487C226.373 181.547 239.887 177.165 254.614 178.133C269.343 179.101 285.368 185.428 301.863 199.049C326.997 219.804 355.132 223.443 378.332 226.444C381.149 226.809 383.893 227.164 386.551 227.539C398.893 229.281 409.228 231.437 416.496 236.762C423.663 242.013 428 250.476 428 265.272Z" fill="#C79EB0" fill-opacity="0.1" stroke="#C79EB0" stroke-width="2"/>
<g filter="url(#filter1_dd)">
<circle cx="294" cy="192" r="6" fill="black"/>
</g>
<circle cx="294" cy="192" r="3" fill="white"/>
<g filter="url(#filter2_dd)">
<path fill-rule="evenodd" clip-rule="evenodd" d="M284 159C281.791 159 280 160.791 280 163V174.185C280 176.394 281.791 178.185 284 178.185H290.275L292.789 181.535C293.589 182.601 295.188 182.601 295.988 181.535L298.503 178.185H304.777C306.986 178.185 308.777 176.394 308.777 174.185V163C308.777 160.791 306.986 159 304.777 159H284Z" fill="black"/>
</g>
<path d="M293.18 168.33C293.86 168.02 294.23 167.43 294.23 166.75C294.23 165.51 293.26 164.78 291.85 164.78C290.27 164.78 289.35 165.69 289.35 167.05H290.42C290.41 166.18 290.97 165.72 291.82 165.72C292.58 165.72 293.08 166.11 293.08 166.8C293.08 167.48 292.63 167.91 291.78 167.91H291.27V168.82H291.82C292.74 168.82 293.22 169.27 293.22 169.98C293.22 170.68 292.7 171.15 291.83 171.15C290.98 171.15 290.42 170.68 290.42 169.82H289.32C289.32 171.18 290.29 172.1 291.87 172.1C293.38 172.1 294.4 171.31 294.4 170.02C294.4 169.23 293.96 168.57 293.18 168.33ZM298.562 169.25C299.382 168.55 299.932 167.9 299.932 166.93C299.932 165.54 298.892 164.78 297.492 164.78C296.222 164.78 295.112 165.59 295.052 167.06H296.152C296.182 166.31 296.742 165.79 297.492 165.79C298.312 165.79 298.792 166.25 298.782 167.03C298.772 167.58 298.472 167.98 297.812 168.58L295.122 171V172H299.922V170.96H296.632L298.562 169.25Z" fill="white"/>
<path d="M267.22 15.788V13.292H270.604V12.104H267.22V9.656H271.576V8.456H265.864V17H271.768V15.788H267.22ZM277.156 13.064H278.572C278.248 11.576 277.132 10.724 275.632 10.724C273.796 10.724 272.572 11.996 272.572 13.916C272.572 15.848 273.796 17.12 275.62 17.12C277.132 17.12 278.26 16.208 278.572 14.72H277.18C276.928 15.536 276.364 15.968 275.596 15.968C274.636 15.968 273.916 15.296 273.916 13.916C273.916 12.608 274.612 11.864 275.632 11.864C276.352 11.864 276.94 12.296 277.156 13.064ZM279.474 13.928C279.474 15.824 280.77 17.12 282.63 17.12C284.502 17.12 285.798 15.824 285.798 13.928C285.798 12.032 284.502 10.724 282.63 10.724C280.77 10.724 279.474 12.032 279.474 13.928ZM280.818 13.916C280.818 12.644 281.538 11.84 282.63 11.84C283.734 11.84 284.454 12.644 284.454 13.916C284.454 15.176 283.734 15.992 282.63 15.992C281.538 15.992 280.818 15.176 280.818 13.916ZM290.371 10.736C289.435 10.736 288.775 11.096 288.427 11.684L288.331 10.856H287.143V17H288.451V13.7C288.451 12.608 289.003 11.888 290.023 11.888C290.923 11.888 291.511 12.452 291.511 13.604V17H292.831V13.328C292.831 11.756 291.919 10.736 290.371 10.736ZM294.099 13.928C294.099 15.824 295.395 17.12 297.255 17.12C299.127 17.12 300.423 15.824 300.423 13.928C300.423 12.032 299.127 10.724 297.255 10.724C295.395 10.724 294.099 12.032 294.099 13.928ZM295.443 13.916C295.443 12.644 296.163 11.84 297.255 11.84C298.359 11.84 299.079 12.644 299.079 13.916C299.079 15.176 298.359 15.992 297.255 15.992C296.163 15.992 295.443 15.176 295.443 13.916ZM308.656 10.736C307.888 10.736 307.096 11.072 306.736 11.852C306.376 11.108 305.656 10.736 304.768 10.736C304.048 10.736 303.436 11.012 303.112 11.552L302.956 10.856H301.768V17H303.076V13.436C303.076 12.452 303.604 11.924 304.456 11.924C305.236 11.924 305.716 12.428 305.716 13.496V17H307V13.448C307.036 12.392 307.612 11.924 308.356 11.924C309.136 11.924 309.628 12.368 309.628 13.412V17H310.96V13.172C310.96 11.576 309.952 10.736 308.656 10.736ZM312.372 9.704H313.824V8.336H312.372V9.704ZM312.444 17H313.752V10.856H312.444V17ZM319.695 13.064H321.111C320.787 11.576 319.671 10.724 318.171 10.724C316.335 10.724 315.111 11.996 315.111 13.916C315.111 15.848 316.335 17.12 318.159 17.12C319.671 17.12 320.799 16.208 321.111 14.72H319.719C319.467 15.536 318.903 15.968 318.135 15.968C317.175 15.968 316.455 15.296 316.455 13.916C316.455 12.608 317.151 11.864 318.171 11.864C318.891 11.864 319.479 12.296 319.695 13.064ZM321.916 15.14C321.94 16.34 323.032 17.12 324.652 17.12C326.08 17.12 327.256 16.46 327.256 15.188C327.256 14.264 326.728 13.7 325.588 13.496L324.376 13.28C323.692 13.16 323.38 12.956 323.38 12.512C323.38 12.008 323.836 11.708 324.556 11.708C325.312 11.708 325.852 12.056 325.864 12.68H327.16C327.148 11.456 326.056 10.736 324.556 10.736C323.164 10.736 322.072 11.456 322.072 12.56C322.072 13.436 322.54 14.06 323.74 14.264L324.976 14.48C325.672 14.588 325.912 14.84 325.912 15.308C325.912 15.848 325.432 16.148 324.628 16.148C323.824 16.148 323.236 15.776 323.224 15.14H321.916Z" fill="#090928"/>
<path d="M15.008 161.612C15.008 160.316 14.276 159.464 12.716 159.176L11.336 158.924C10.388 158.744 9.956 158.396 9.956 157.7C9.956 156.92 10.676 156.464 11.66 156.464C12.776 156.464 13.508 156.932 13.508 157.856H14.864C14.864 156.128 13.424 155.336 11.696 155.336C9.776 155.336 8.552 156.356 8.552 157.796C8.552 159.032 9.344 159.86 10.856 160.136L12.236 160.4C13.136 160.568 13.592 160.892 13.592 161.636C13.592 162.464 12.788 162.956 11.756 162.956C10.436 162.956 9.764 162.392 9.764 161.576H8.372C8.372 163.1 9.656 164.12 11.744 164.12C13.58 164.12 15.008 163.196 15.008 161.612ZM21.8008 163.016C21.5248 163.016 21.3928 162.944 21.3928 162.608V160.124C21.3928 158.456 20.2168 157.736 18.7768 157.736C17.2648 157.736 16.1728 158.504 16.1368 159.836H17.3488C17.3848 159.2 17.9128 158.792 18.7288 158.792C19.5328 158.792 20.0728 159.212 20.0728 160.112V160.424H18.2848C16.6048 160.424 15.9448 161.192 15.9448 162.236C15.9448 163.412 16.8088 164.12 18.1648 164.12C19.1248 164.12 19.8808 163.76 20.2288 163.22C20.3248 163.808 20.7808 164 21.2848 164H22.0288V163.016H21.8008ZM20.0728 161.576C20.0728 162.584 19.3768 163.076 18.4648 163.076C17.7928 163.076 17.3008 162.8 17.3008 162.176C17.3008 161.72 17.5768 161.324 18.4648 161.324H20.0728V161.576ZM22.5363 157.856V159.008H23.5443V164H24.8643V159.008H26.3283V157.856H24.8643V156.956C24.8643 156.5 24.9963 156.176 25.6563 156.176H26.3283V155.072H25.4283C24.0963 155.072 23.5443 155.696 23.5443 156.86V157.856H22.5363ZM33.1048 160.796C33.1048 158.948 31.8928 157.724 30.1048 157.724C28.2808 157.724 27.0688 158.996 27.0688 160.916C27.0688 162.848 28.2808 164.12 30.1168 164.12C31.6168 164.12 32.7208 163.28 33.0448 162.032H31.7128C31.4608 162.704 30.8608 163.04 30.1408 163.04C29.1808 163.04 28.4248 162.44 28.4008 161.288H33.1048V160.796ZM30.1048 158.768C30.9928 158.768 31.7008 159.308 31.7728 160.376H28.4128C28.5088 159.308 29.2288 158.768 30.1048 158.768ZM36.4601 164H37.5281V162.836H36.8321C36.2561 162.836 36.1121 162.572 36.1121 162.08V159.02H37.5401V157.856H36.1121V156.212H34.8041V157.28C34.8041 157.664 34.6841 157.856 34.3001 157.856H33.7721V159.02H34.8041V162.332C34.8041 163.4 35.3921 164 36.4601 164ZM39.5123 157.856H38.0963L40.4363 163.916C40.5083 164.108 40.5443 164.264 40.5443 164.42C40.5443 164.96 40.2443 165.236 39.7283 165.236H38.3603V166.4H39.7163C40.6283 166.4 41.3843 166.184 41.8163 164.984L44.3963 157.856L43.0283 157.844L41.3363 162.944L39.5123 157.856Z" fill="#090928"/>
<path d="M528.008 153.612C528.008 152.316 527.276 151.464 525.716 151.176L524.336 150.924C523.388 150.744 522.956 150.396 522.956 149.7C522.956 148.92 523.676 148.464 524.66 148.464C525.776 148.464 526.508 148.932 526.508 149.856H527.864C527.864 148.128 526.424 147.336 524.696 147.336C522.776 147.336 521.552 148.356 521.552 149.796C521.552 151.032 522.344 151.86 523.856 152.136L525.236 152.4C526.136 152.568 526.592 152.892 526.592 153.636C526.592 154.464 525.788 154.956 524.756 154.956C523.436 154.956 522.764 154.392 522.764 153.576H521.372C521.372 155.1 522.656 156.12 524.744 156.12C526.58 156.12 528.008 155.196 528.008 153.612ZM534.801 155.016C534.525 155.016 534.393 154.944 534.393 154.608V152.124C534.393 150.456 533.217 149.736 531.777 149.736C530.265 149.736 529.173 150.504 529.137 151.836H530.349C530.385 151.2 530.913 150.792 531.729 150.792C532.533 150.792 533.073 151.212 533.073 152.112V152.424H531.285C529.605 152.424 528.945 153.192 528.945 154.236C528.945 155.412 529.809 156.12 531.165 156.12C532.125 156.12 532.881 155.76 533.229 155.22C533.325 155.808 533.781 156 534.285 156H535.029V155.016H534.801ZM533.073 153.576C533.073 154.584 532.377 155.076 531.465 155.076C530.793 155.076 530.301 154.8 530.301 154.176C530.301 153.72 530.577 153.324 531.465 153.324H533.073V153.576ZM535.536 149.856V151.008H536.544V156H537.864V151.008H539.328V149.856H537.864V148.956C537.864 148.5 537.996 148.176 538.656 148.176H539.328V147.072H538.428C537.096 147.072 536.544 147.696 536.544 148.86V149.856H535.536ZM546.105 152.796C546.105 150.948 544.893 149.724 543.105 149.724C541.281 149.724 540.069 150.996 540.069 152.916C540.069 154.848 541.281 156.12 543.117 156.12C544.617 156.12 545.721 155.28 546.045 154.032H544.713C544.461 154.704 543.861 155.04 543.141 155.04C542.181 155.04 541.425 154.44 541.401 153.288H546.105V152.796ZM543.105 150.768C543.993 150.768 544.701 151.308 544.773 152.376H541.413C541.509 151.308 542.229 150.768 543.105 150.768ZM549.46 156H550.528V154.836H549.832C549.256 154.836 549.112 154.572 549.112 154.08V151.02H550.54V149.856H549.112V148.212H547.804V149.28C547.804 149.664 547.684 149.856 547.3 149.856H546.772V151.02H547.804V154.332C547.804 155.4 548.392 156 549.46 156ZM552.512 149.856H551.096L553.436 155.916C553.508 156.108 553.544 156.264 553.544 156.42C553.544 156.96 553.244 157.236 552.728 157.236H551.36V158.4H552.716C553.628 158.4 554.384 158.184 554.816 156.984L557.396 149.856L556.028 149.844L554.336 154.944L552.512 149.856Z" fill="#090928"/>
<path d="M2.22 421.788V419.292H5.604V418.104H2.22V415.656H6.576V414.456H0.864V423H6.768V421.788H2.22ZM12.5998 414.084V417.756C12.2278 417.132 11.4478 416.724 10.4878 416.724C8.85581 416.724 7.57181 417.876 7.57181 419.94C7.57181 421.944 8.79581 423.12 10.4878 423.12C11.4358 423.12 12.2398 422.688 12.6118 422.064L12.7198 423H13.9198V414.084H12.5998ZM10.7518 421.956C9.68381 421.956 8.92781 421.212 8.92781 419.94C8.92781 418.692 9.67181 417.9 10.7518 417.9C11.7838 417.888 12.5758 418.68 12.5758 419.94C12.5758 421.212 11.7838 421.956 10.7518 421.956ZM19.6033 416.844V420.216C19.6033 421.272 19.0873 421.956 18.1273 421.968C17.2513 421.98 16.6753 421.452 16.6753 420.336V416.844H15.4153V420.516C15.4153 422.088 16.3153 423.12 17.8513 423.12C18.6433 423.12 19.2553 422.76 19.5913 422.208L19.6873 423H20.8633V416.844H19.6033ZM26.7925 419.064H28.2085C27.8845 417.576 26.7685 416.724 25.2685 416.724C23.4325 416.724 22.2085 417.996 22.2085 419.916C22.2085 421.848 23.4325 423.12 25.2565 423.12C26.7685 423.12 27.8965 422.208 28.2085 420.72H26.8165C26.5645 421.536 26.0005 421.968 25.2325 421.968C24.2725 421.968 23.5525 421.296 23.5525 419.916C23.5525 418.608 24.2485 417.864 25.2685 417.864C25.9885 417.864 26.5765 418.296 26.7925 419.064ZM34.9532 422.016C34.6772 422.016 34.5452 421.944 34.5452 421.608V419.124C34.5452 417.456 33.3692 416.736 31.9292 416.736C30.4172 416.736 29.3252 417.504 29.2892 418.836H30.5012C30.5372 418.2 31.0652 417.792 31.8812 417.792C32.6852 417.792 33.2252 418.212 33.2252 419.112V419.424H31.4372C29.7572 419.424 29.0972 420.192 29.0972 421.236C29.0972 422.412 29.9612 423.12 31.3172 423.12C32.2772 423.12 33.0332 422.76 33.3812 422.22C33.4772 422.808 33.9332 423 34.4372 423H35.1812V422.016H34.9532ZM33.2252 420.576C33.2252 421.584 32.5292 422.076 31.6172 422.076C30.9452 422.076 30.4532 421.8 30.4532 421.176C30.4532 420.72 30.7292 420.324 31.6172 420.324H33.2252V420.576ZM38.1749 423H39.2429V421.836H38.5469C37.9709 421.836 37.8269 421.572 37.8269 421.08V418.02H39.2549V416.856H37.8269V415.212H36.5189V416.28C36.5189 416.664 36.3989 416.856 36.0149 416.856H35.4869V418.02H36.5189V421.332C36.5189 422.4 37.1069 423 38.1749 423ZM40.4111 415.704H41.8631V414.336H40.4111V415.704ZM40.4831 423H41.7911V416.856H40.4831V423ZM43.1499 419.928C43.1499 421.824 44.4459 423.12 46.3059 423.12C48.1779 423.12 49.4739 421.824 49.4739 419.928C49.4739 418.032 48.1779 416.724 46.3059 416.724C44.4459 416.724 43.1499 418.032 43.1499 419.928ZM44.4939 419.916C44.4939 418.644 45.2139 417.84 46.3059 417.84C47.4099 417.84 48.1299 418.644 48.1299 419.916C48.1299 421.176 47.4099 421.992 46.3059 421.992C45.2139 421.992 44.4939 421.176 44.4939 419.916ZM54.0471 416.736C53.1111 416.736 52.4511 417.096 52.1031 417.684L52.0071 416.856H50.8191V423H52.1271V419.7C52.1271 418.608 52.6791 417.888 53.6991 417.888C54.5991 417.888 55.1871 418.452 55.1871 419.604V423H56.5071V419.328C56.5071 417.756 55.5951 416.736 54.0471 416.736Z" fill="#090928"/>
<path d="M569.22 425.788V423.292H572.604V422.104H569.22V419.656H573.576V418.456H567.864V427H573.768V425.788H569.22ZM579.6 418.084V421.756C579.228 421.132 578.448 420.724 577.488 420.724C575.856 420.724 574.572 421.876 574.572 423.94C574.572 425.944 575.796 427.12 577.488 427.12C578.436 427.12 579.24 426.688 579.612 426.064L579.72 427H580.92V418.084H579.6ZM577.752 425.956C576.684 425.956 575.928 425.212 575.928 423.94C575.928 422.692 576.672 421.9 577.752 421.9C578.784 421.888 579.576 422.68 579.576 423.94C579.576 425.212 578.784 425.956 577.752 425.956ZM586.603 420.844V424.216C586.603 425.272 586.087 425.956 585.127 425.968C584.251 425.98 583.675 425.452 583.675 424.336V420.844H582.415V424.516C582.415 426.088 583.315 427.12 584.851 427.12C585.643 427.12 586.255 426.76 586.591 426.208L586.687 427H587.863V420.844H586.603ZM593.793 423.064H595.209C594.885 421.576 593.769 420.724 592.269 420.724C590.433 420.724 589.209 421.996 589.209 423.916C589.209 425.848 590.433 427.12 592.257 427.12C593.769 427.12 594.897 426.208 595.209 424.72H593.817C593.565 425.536 593.001 425.968 592.233 425.968C591.273 425.968 590.553 425.296 590.553 423.916C590.553 422.608 591.249 421.864 592.269 421.864C592.989 421.864 593.577 422.296 593.793 423.064ZM601.953 426.016C601.677 426.016 601.545 425.944 601.545 425.608V423.124C601.545 421.456 600.369 420.736 598.929 420.736C597.417 420.736 596.325 421.504 596.289 422.836H597.501C597.537 422.2 598.065 421.792 598.881 421.792C599.685 421.792 600.225 422.212 600.225 423.112V423.424H598.437C596.757 423.424 596.097 424.192 596.097 425.236C596.097 426.412 596.961 427.12 598.317 427.12C599.277 427.12 600.033 426.76 600.381 426.22C600.477 426.808 600.933 427 601.437 427H602.181V426.016H601.953ZM600.225 424.576C600.225 425.584 599.529 426.076 598.617 426.076C597.945 426.076 597.453 425.8 597.453 425.176C597.453 424.72 597.729 424.324 598.617 424.324H600.225V424.576ZM605.175 427H606.243V425.836H605.547C604.971 425.836 604.827 425.572 604.827 425.08V422.02H606.255V420.856H604.827V419.212H603.519V420.28C603.519 420.664 603.399 420.856 603.015 420.856H602.487V422.02H603.519V425.332C603.519 426.4 604.107 427 605.175 427ZM607.411 419.704H608.863V418.336H607.411V419.704ZM607.483 427H608.791V420.856H607.483V427ZM610.15 423.928C610.15 425.824 611.446 427.12 613.306 427.12C615.178 427.12 616.474 425.824 616.474 423.928C616.474 422.032 615.178 420.724 613.306 420.724C611.446 420.724 610.15 422.032 610.15 423.928ZM611.494 423.916C611.494 422.644 612.214 421.84 613.306 421.84C614.41 421.84 615.13 422.644 615.13 423.916C615.13 425.176 614.41 425.992 613.306 425.992C612.214 425.992 611.494 425.176 611.494 423.916ZM621.047 420.736C620.111 420.736 619.451 421.096 619.103 421.684L619.007 420.856H617.819V427H619.127V423.7C619.127 422.608 619.679 421.888 620.699 421.888C621.599 421.888 622.187 422.452 622.187 423.604V427H623.507V423.328C623.507 421.756 622.595 420.736 621.047 420.736Z" fill="#090928"/>
<defs>
<filter id="filter0_dd" x="50.0151" y="17.4034" width="490.97" height="548.023" filterUnits="userSpaceOnUse" color-interpolation-filters="sRGB">
<feFlood flood-opacity="0" result="BackgroundImageFix"/>
<feColorMatrix in="SourceAlpha" type="matrix" values="0 0 0 0 0 0 0 0 0 0 0 0 0 0 0 0 0 0 127 0"/>
<feOffset/>
<feGaussianBlur stdDeviation="12"/>
<feColorMatrix type="matrix" values="0 0 0 0 0.57609 0 0 0 0 0.589545 0 0 0 0 0.619739 0 0 0 0.0269475 0"/>
<feBlend mode="normal" in2="BackgroundImageFix" result="effect1_dropShadow"/>
<feColorMatrix in="SourceAlpha" type="matrix" values="0 0 0 0 0 0 0 0 0 0 0 0 0 0 0 0 0 0 127 0"/>
<feOffset dy="22.8296"/>
<feGaussianBlur stdDeviation="22.5"/>
<feColorMatrix type="matrix" values="0 0 0 0 0.576471 0 0 0 0 0.588235 0 0 0 0 0.619608 0 0 0 0.0957314 0"/>
<feBlend mode="normal" in2="effect1_dropShadow" result="effect2_dropShadow"/>
<feBlend mode="normal" in="SourceGraphic" in2="effect2_dropShadow" result="shape"/>
</filter>
<filter id="filter1_dd" x="263" y="161" width="62" height="62" filterUnits="userSpaceOnUse" color-interpolation-filters="sRGB">
<feFlood flood-opacity="0" result="BackgroundImageFix"/>
<feColorMatrix in="SourceAlpha" type="matrix" values="0 0 0 0 0 0 0 0 0 0 0 0 0 0 0 0 0 0 127 0"/>
<feOffset dy="4"/>
<feGaussianBlur stdDeviation="2"/>
<feColorMatrix type="matrix" values="0 0 0 0 0.690196 0 0 0 0 0.713726 0 0 0 0 0.756863 0 0 0 0.19 0"/>
<feBlend mode="normal" in2="BackgroundImageFix" result="effect1_dropShadow"/>
<feColorMatrix in="SourceAlpha" type="matrix" values="0 0 0 0 0 0 0 0 0 0 0 0 0 0 0 0 0 0 127 0"/>
<feOffset/>
<feGaussianBlur stdDeviation="12.5"/>
<feColorMatrix type="matrix" values="0 0 0 0 0.690196 0 0 0 0 0.713726 0 0 0 0 0.756863 0 0 0 0.08 0"/>
<feBlend mode="normal" in2="effect1_dropShadow" result="effect2_dropShadow"/>
<feBlend mode="normal" in="SourceGraphic" in2="effect2_dropShadow" result="shape"/>
</filter>
<filter id="filter2_dd" x="255" y="134" width="78.7772" height="73.3344" filterUnits="userSpaceOnUse" color-interpolation-filters="sRGB">
<feFlood flood-opacity="0" result="BackgroundImageFix"/>
<feColorMatrix in="SourceAlpha" type="matrix" values="0 0 0 0 0 0 0 0 0 0 0 0 0 0 0 0 0 0 127 0"/>
<feOffset dy="4"/>
<feGaussianBlur stdDeviation="2"/>
<feColorMatrix type="matrix" values="0 0 0 0 0.690196 0 0 0 0 0.713726 0 0 0 0 0.756863 0 0 0 0.19 0"/>
<feBlend mode="normal" in2="BackgroundImageFix" result="effect1_dropShadow"/>
<feColorMatrix in="SourceAlpha" type="matrix" values="0 0 0 0 0 0 0 0 0 0 0 0 0 0 0 0 0 0 127 0"/>
<feOffset/>
<feGaussianBlur stdDeviation="12.5"/>
<feColorMatrix type="matrix" values="0 0 0 0 0.690196 0 0 0 0 0.713726 0 0 0 0 0.756863 0 0 0 0.08 0"/>
<feBlend mode="normal" in2="effect1_dropShadow" result="effect2_dropShadow"/>
<feBlend mode="normal" in="SourceGraphic" in2="effect2_dropShadow" result="shape"/>
</filter>
</defs>
</svg>
