<svg width="24" height="24" viewBox="0 0 24 24" fill="none" xmlns="http://www.w3.org/2000/svg">
<path fill-rule="evenodd" clip-rule="evenodd" d="M8 3V3.5C8 4.32843 8.67157 5 9.5 5H14.5C15.3284 5 16 4.32843 16 3.5V3H18C19.1046 3 20 3.89543 20 5V21C20 22.1046 19.1046 23 18 23H6C4.89543 23 4 22.1046 4 21V5C4 3.89543 4.89543 3 6 3H8Z" fill="black"/>
<path fill-rule="evenodd" clip-rule="evenodd" d="M11 2C11 1.44772 11.4477 1 12 1C12.5523 1 13 1.44772 13 2H14.5C14.7761 2 15 2.22386 15 2.5V3.5C15 3.77614 14.7761 4 14.5 4H9.5C9.22386 4 9 3.77614 9 3.5V2.5C9 2.22386 9.22386 2 9.5 2H11Z" fill="black"/>
<path d="M16 9H11C10.4477 9 10 9.44772 10 10C10 10.5523 10.4477 11 11 11H16C16.5523 11 17 10.5523 17 10C17 9.44772 16.5523 9 16 9Z" fill="#E5A3A3"/>
<path d="M9 10C9 9.44772 8.55228 9 8 9C7.44772 9 7 9.44772 7 10C7 10.5523 7.44772 11 8 11C8.55228 11 9 10.5523 9 10Z" fill="#E5A3A3"/>
<path d="M9 14C9 13.4477 8.55228 13 8 13C7.44772 13 7 13.4477 7 14C7 14.5523 7.44772 15 8 15C8.55228 15 9 14.5523 9 14Z" fill="#E5A3A3"/>
<path d="M16 13H11C10.4477 13 10 13.4477 10 14C10 14.5523 10.4477 15 11 15H16C16.5523 15 17 14.5523 17 14C17 13.4477 16.5523 13 16 13Z" fill="#E5A3A3"/>
<path d="M9 18C9 17.4477 8.55228 17 8 17C7.44772 17 7 17.4477 7 18C7 18.5523 7.44772 19 8 19C8.55228 19 9 18.5523 9 18Z" fill="#E5A3A3"/>
<path d="M16 17H11C10.4477 17 10 17.4477 10 18C10 18.5523 10.4477 19 11 19H16C16.5523 19 17 18.5523 17 18C17 17.4477 16.5523 17 16 17Z" fill="#E5A3A3"/>
</svg>
