<svg width="32" height="32" viewBox="0 0 32 32" fill="none" xmlns="http://www.w3.org/2000/svg">
<path fill-rule="evenodd" clip-rule="evenodd" d="M21.3334 20.8421V16C21.3334 13.7909 19.5425 12 17.3334 12H8.21582V7.36842C8.21582 5.50809 9.72391 4 11.5842 4H27.3035C29.1639 4 30.672 5.50809 30.672 7.36842V17.4737L30.6942 23.7157C30.6955 24.0839 30.3981 24.3834 30.0299 24.3848C29.8523 24.3854 29.6817 24.3151 29.5561 24.1895L26.2087 20.8421H21.3334Z" fill="#374AD3"/>
<path opacity="0.3" fill-rule="evenodd" clip-rule="evenodd" d="M2.64673 24.0001V17.3334C2.64673 15.8607 3.84064 14.6667 5.3134 14.6667H15.9801C17.4528 14.6667 18.6467 15.8607 18.6467 17.3334V24.0001C18.6467 25.4728 17.4528 26.6667 15.9801 26.6667H5.4677L3.80923 28.2541C3.54324 28.5087 3.12124 28.4995 2.86665 28.2335C2.74789 28.1094 2.6816 27.9443 2.6816 27.7725V24.4324C2.65866 24.2917 2.64673 24.1473 2.64673 24.0001ZM8.66665 18.6667C8.29846 18.6667 7.99999 18.9652 7.99999 19.3334C7.99999 19.7016 8.29846 20.0001 8.66665 20.0001H15.3333C15.7015 20.0001 16 19.7016 16 19.3334C16 18.9652 15.7015 18.6667 15.3333 18.6667H8.66665ZM12.6667 21.3334C12.2985 21.3334 12 21.6319 12 22.0001C12 22.3683 12.2985 22.6667 12.6667 22.6667H15.3333C15.7015 22.6667 16 22.3683 16 22.0001C16 21.6319 15.7015 21.3334 15.3333 21.3334H12.6667Z" fill="#374AD3"/>
</svg>
