<svg width="32" height="32" viewBox="0 0 32 32" fill="none" xmlns="http://www.w3.org/2000/svg">
<path opacity="0.3" d="M24.0001 18.6667C21.7909 18.6667 20.0001 16.8758 20.0001 14.6667C20.0001 12.4575 21.7909 10.6667 24.0001 10.6667C26.2092 10.6667 28.0001 12.4575 28.0001 14.6667C28.0001 16.8758 26.2092 18.6667 24.0001 18.6667ZM12.0001 14.6667C9.05456 14.6667 6.66675 12.2789 6.66675 9.33333C6.66675 6.38781 9.05456 4 12.0001 4C14.9456 4 17.3334 6.38781 17.3334 9.33333C17.3334 12.2789 14.9456 14.6667 12.0001 14.6667Z" fill="#374AD3"/>
<path d="M23.4683 20.0007C28.0103 20.0504 31.7189 22.3468 31.998 27.1999C32.0092 27.3954 31.998 27.9999 31.2746 27.9999H26.1333C26.1333 24.9987 25.1417 22.229 23.4683 20.0007ZM0.000868912 26.9322C0.517678 20.5686 5.68255 17.3333 11.9778 17.3333C18.3616 17.3333 23.6065 20.3908 23.9972 26.9333C24.0128 27.1939 23.9972 27.9999 22.9956 27.9999C18.0548 27.9999 10.713 27.9999 0.970003 27.9999C0.635616 27.9999 -0.0272823 27.2788 0.000868912 26.9322Z" fill="#374AD3"/>
</svg>
