<svg width="32" height="32" viewBox="0 0 32 32" fill="none" xmlns="http://www.w3.org/2000/svg">
<path fill-rule="evenodd" clip-rule="evenodd" d="M7.33325 8C8.43782 8 9.33325 8.89543 9.33325 10V24.6667C9.33325 25.7712 8.43782 26.6667 7.33325 26.6667C6.22868 26.6667 5.33325 25.7712 5.33325 24.6667V10C5.33325 8.89543 6.22868 8 7.33325 8ZM15.3333 14.6667C16.4378 14.6667 17.3333 15.5621 17.3333 16.6667V24.6667C17.3333 25.7712 16.4378 26.6667 15.3333 26.6667C14.2287 26.6667 13.3333 25.7712 13.3333 24.6667V16.6667C13.3333 15.5621 14.2287 14.6667 15.3333 14.6667ZM23.3333 20C24.4378 20 25.3333 20.8954 25.3333 22V24.6667C25.3333 25.7712 24.4378 26.6667 23.3333 26.6667C22.2287 26.6667 21.3333 25.7712 21.3333 24.6667V22C21.3333 20.8954 22.2287 20 23.3333 20Z" fill="#374AD3"/>
</svg>
