<svg width="32" height="32" viewBox="0 0 32 32" fill="none" xmlns="http://www.w3.org/2000/svg">
<path fill-rule="evenodd" clip-rule="evenodd" d="M17.3152 11.7788C17.3272 11.8507 17.3334 11.9246 17.3334 12V14.6667H22.6667C24.1395 14.6667 25.3334 15.8606 25.3334 17.3333V21.3333H6.66675V17.3333C6.66675 15.8606 7.86066 14.6667 9.33341 14.6667H14.6667V12C14.6667 11.9246 14.673 11.8507 14.685 11.7788C13.1219 11.2349 12.0001 9.74844 12.0001 8C12.0001 5.79086 13.7909 4 16.0001 4C18.2092 4 20.0001 5.79086 20.0001 8C20.0001 9.74844 18.8783 11.2349 17.3152 11.7788Z" fill="#374AD3"/>
<path opacity="0.3" d="M24.0001 24H8.00008C7.2637 24 6.66675 24.597 6.66675 25.3333C6.66675 26.0697 7.2637 26.6667 8.00008 26.6667H24.0001C24.7365 26.6667 25.3334 26.0697 25.3334 25.3333C25.3334 24.597 24.7365 24 24.0001 24Z" fill="#374AD3"/>
</svg>
